<svg width="160" height="56" viewBox="0 0 160 56" fill="none" xmlns="http://www.w3.org/2000/svg">
<path fill-rule="evenodd" clip-rule="evenodd" d="M66.9016 18.5137C66.9016 29.6444 66.9016 40.775 66.9016 51.9059C66.9016 54.007 65.1879 55.7206 63.0868 55.7204C59.7576 55.7204 56.4282 55.7204 53.0989 55.7204C57.6994 43.3181 62.3006 30.9155 66.9016 18.5137ZM42.2932 55.7204C35.867 55.7204 29.4407 55.7204 23.0145 55.7204C24.8442 48.9807 26.6745 42.2406 28.5034 35.5006C35.1319 36.1798 41.7605 36.859 48.389 37.5376C46.3572 43.5983 44.3259 49.6601 42.2932 55.7204ZM12.6208 54.8895C12.2999 49.1437 8.28551 35.7883 0 32.378C1.61633 32.5421 15.8542 34.2049 17.4723 34.3708C15.8573 41.2107 14.2382 48.0501 12.6208 54.8895Z" fill="#00AFEF"/>
<path fill-rule="evenodd" clip-rule="evenodd" d="M16.4352 1.43985C19.3768 1.43985 22.3183 1.43967 25.2599 1.43967C23.8122 7.56603 22.3635 13.6929 20.9149 19.8191C18.1501 19.5355 15.3854 19.2522 12.6208 18.969C12.6208 14.3975 12.6208 9.82574 12.6208 5.25421C12.6208 3.15313 14.3341 1.44003 16.4352 1.43985ZM37.75 1.43967C45.33 1.43967 52.9101 1.43967 60.4902 1.43967C58.0668 8.66884 55.6439 15.8993 53.2201 23.1283C46.2937 22.419 39.367 21.7093 32.4406 20.9999C34.2094 14.4796 35.9802 7.95944 37.75 1.43967Z" fill="#626262"/>
<path d="M74.9016 1H76.3048V6.8499H83.3967V1H84.7999V14.9468H83.3967V8.21519H76.3048V14.9468H74.9016V1Z" fill="#626262"/>
<path d="M98.2537 4.6313V14.9468H96.9453V13.1739C96.3891 13.8502 95.7634 14.359 95.0681 14.7003C94.3791 15.0417 93.6238 15.2123 92.8021 15.2123C91.342 15.2123 90.0936 14.6845 89.057 13.629C88.0267 12.5671 87.5115 11.2776 87.5115 9.76063C87.5115 8.27524 88.033 7.00476 89.0759 5.94919C90.1189 4.89361 91.3736 4.36583 92.84 4.36583C93.687 4.36583 94.4518 4.54597 95.1344 4.90625C95.8234 5.26654 96.427 5.80697 96.9453 6.52754V4.6313H98.2537ZM92.9443 5.64579C92.2047 5.64579 91.5221 5.82909 90.8963 6.1957C90.2706 6.55598 89.7712 7.06481 89.3983 7.72217C89.0317 8.37953 88.8484 9.07482 88.8484 9.80804C88.8484 10.5349 89.0349 11.2302 89.4078 11.8939C89.7807 12.5576 90.2801 13.0759 90.9058 13.4488C91.5379 13.8154 92.2142 13.9987 92.9348 13.9987C93.6617 13.9987 94.3507 13.8154 95.0017 13.4488C95.6527 13.0822 96.1521 12.586 96.4997 11.9603C96.8537 11.3345 97.0307 10.6297 97.0307 9.84596C97.0307 8.65133 96.6356 7.65264 95.8455 6.8499C95.0617 6.04716 94.0947 5.64579 92.9443 5.64579Z" fill="#626262"/>
<path d="M100.747 4.6313H102.103V6.13881C102.508 5.54466 102.934 5.1022 103.383 4.81144C103.832 4.51437 104.3 4.36583 104.786 4.36583C105.153 4.36583 105.545 4.48276 105.962 4.71663L105.27 5.83541C104.992 5.71532 104.758 5.65527 104.568 5.65527C104.126 5.65527 103.699 5.83857 103.288 6.20518C102.877 6.56546 102.565 7.12802 102.35 7.89283C102.185 8.48067 102.103 9.66898 102.103 11.4578V14.9468H100.747V4.6313Z" fill="#626262"/>
<path d="M107.081 4.6313H108.399V6.41377C108.86 5.7564 109.334 5.27602 109.821 4.97262C110.491 4.56809 111.196 4.36583 111.935 4.36583C112.434 4.36583 112.909 4.4638 113.357 4.65974C113.806 4.85569 114.173 5.118 114.457 5.44668C114.742 5.76904 114.988 6.23362 115.197 6.84042C115.639 6.03136 116.192 5.41824 116.856 5.00107C117.52 4.57757 118.234 4.36583 118.999 4.36583C119.713 4.36583 120.342 4.54597 120.885 4.90625C121.435 5.26654 121.843 5.76904 122.108 6.41377C122.374 7.05849 122.507 8.02557 122.507 9.31501V14.9468H121.151V9.31501C121.151 8.20887 121.072 7.45038 120.914 7.03953C120.756 6.62235 120.484 6.28735 120.098 6.03452C119.719 5.78169 119.264 5.65527 118.733 5.65527C118.088 5.65527 117.497 5.84489 116.96 6.22414C116.429 6.60339 116.04 7.10905 115.794 7.74113C115.547 8.37321 115.424 9.42879 115.424 10.9079V14.9468H114.106V9.66582C114.106 8.42062 114.027 7.57679 113.869 7.13434C113.718 6.68556 113.449 6.32843 113.063 6.06296C112.678 5.79117 112.22 5.65527 111.689 5.65527C111.075 5.65527 110.5 5.84173 109.963 6.21466C109.432 6.58127 109.037 7.07745 108.778 7.70321C108.525 8.32897 108.399 9.28657 108.399 10.576V14.9468H107.081V4.6313Z" fill="#626262"/>
<path d="M130.196 4.36583C131.782 4.36583 133.097 4.94102 134.14 6.0914C135.088 7.14066 135.562 8.3827 135.562 9.81752C135.562 11.2587 135.06 12.5197 134.055 13.6005C133.056 14.6751 131.77 15.2123 130.196 15.2123C128.616 15.2123 127.323 14.6751 126.318 13.6005C125.319 12.5197 124.82 11.2587 124.82 9.81752C124.82 8.38902 125.294 7.15014 126.242 6.10089C127.285 4.94418 128.603 4.36583 130.196 4.36583ZM130.196 5.66475C129.096 5.66475 128.151 6.07244 127.361 6.88783C126.571 7.70321 126.176 8.68925 126.176 9.84596C126.176 10.5918 126.356 11.2871 126.716 11.9318C127.077 12.5765 127.563 13.0759 128.176 13.4299C128.79 13.7775 129.463 13.9513 130.196 13.9513C130.929 13.9513 131.602 13.7775 132.215 13.4299C132.829 13.0759 133.315 12.5765 133.676 11.9318C134.036 11.2871 134.216 10.5918 134.216 9.84596C134.216 8.68925 133.818 7.70321 133.021 6.88783C132.231 6.07244 131.289 5.66475 130.196 5.66475Z" fill="#626262"/>
<path d="M138.037 4.6313H139.364V6.48013C139.895 5.7722 140.483 5.24442 141.128 4.89677C141.772 4.54281 142.474 4.36583 143.233 4.36583C144.004 4.36583 144.686 4.56177 145.281 4.95366C145.881 5.34555 146.323 5.87334 146.608 6.53702C146.892 7.20071 147.035 8.23416 147.035 9.63737V14.9468H145.717V10.0261C145.717 8.83779 145.666 8.04453 145.565 7.64632C145.407 6.96368 145.11 6.45169 144.674 6.11037C144.238 5.76272 143.669 5.5889 142.967 5.5889C142.164 5.5889 141.444 5.85437 140.805 6.38532C140.173 6.91627 139.756 7.57363 139.554 8.35741C139.427 8.8694 139.364 9.80487 139.364 11.1638V14.9468H138.037V4.6313Z" fill="#626262"/>
<path d="M148.779 4.6313H150.182L153.728 12.5765L157.17 4.6313H158.583L152.429 18.7204H151.026L153.017 14.1694L148.779 4.6313Z" fill="#626262"/>
<path d="M74.9016 20.4508H76.3048V26.3007H83.3967V20.4508H84.7999V34.3976H83.3967V27.666H76.3048V34.3976H74.9016V20.4508Z" fill="#626262"/>
<path d="M96.6609 30.9749L97.7797 31.5628C97.4131 32.2833 96.9896 32.8648 96.5092 33.3073C96.0288 33.7497 95.4884 34.0879 94.8879 34.3218C94.2874 34.5493 93.608 34.6631 92.8495 34.6631C91.1681 34.6631 89.8534 34.1132 88.9053 33.0134C87.9572 31.9072 87.4831 30.6589 87.4831 29.2683C87.4831 27.9599 87.8845 26.7937 88.6872 25.7697C89.7049 24.4677 91.067 23.8166 92.7736 23.8166C94.5308 23.8166 95.934 24.4835 96.9833 25.8171C97.7291 26.7589 98.1084 27.9346 98.121 29.3442H88.8484C88.8737 30.5451 89.2561 31.5311 89.9956 32.3023C90.7352 33.0671 91.6485 33.4495 92.7357 33.4495C93.2603 33.4495 93.7691 33.3579 94.2622 33.1746C94.7615 32.9913 95.185 32.7479 95.5326 32.4445C95.8803 32.1411 96.2564 31.6512 96.6609 30.9749ZM96.6609 28.1969C96.4839 27.489 96.2248 26.9233 95.8834 26.4998C95.5484 26.0763 95.1028 25.735 94.5466 25.4758C93.9904 25.2167 93.4057 25.0871 92.7926 25.0871C91.7812 25.0871 90.9121 25.4126 90.1852 26.0637C89.6543 26.5377 89.2529 27.2488 88.9811 28.1969H96.6609Z" fill="#626262"/>
<path d="M110.883 24.0821V34.3976H109.574V32.6246C109.018 33.301 108.392 33.8098 107.697 34.1511C107.008 34.4924 106.253 34.6631 105.431 34.6631C103.971 34.6631 102.723 34.1353 101.686 33.0797C100.656 32.0178 100.141 30.7284 100.141 29.2114C100.141 27.726 100.662 26.4555 101.705 25.4C102.748 24.3444 104.003 23.8166 105.469 23.8166C106.316 23.8166 107.081 23.9968 107.763 24.357C108.452 24.7173 109.056 25.2578 109.574 25.9783V24.0821H110.883ZM105.573 25.0966C104.834 25.0966 104.151 25.2799 103.525 25.6465C102.9 26.0068 102.4 26.5156 102.027 27.173C101.661 27.8303 101.477 28.5256 101.477 29.2588C101.477 29.9857 101.664 30.681 102.037 31.3447C102.41 32.0084 102.909 32.5267 103.535 32.8996C104.167 33.2662 104.843 33.4495 105.564 33.4495C106.291 33.4495 106.98 33.2662 107.631 32.8996C108.282 32.533 108.781 32.0368 109.129 31.4111C109.483 30.7853 109.66 30.0805 109.66 29.2967C109.66 28.1021 109.265 27.1034 108.474 26.3007C107.691 25.4979 106.724 25.0966 105.573 25.0966Z" fill="#626262"/>
<path d="M113.68 20.1H115.007V34.3976H113.68V20.1Z" fill="#626262"/>
<path d="M118.923 20.2517H120.26V24.0821H122.364V25.2198H120.26V34.3976H118.923V25.2198H117.112V24.0821H118.923V20.2517Z" fill="#626262"/>
<path d="M124.346 20.1H125.673V25.9309C126.211 25.223 126.802 24.6952 127.446 24.3476C128.091 23.9936 128.79 23.8166 129.542 23.8166C130.313 23.8166 130.995 24.0126 131.59 24.4044C132.19 24.7963 132.633 25.3241 132.917 25.9878C133.201 26.6452 133.344 27.6786 133.344 29.0882V34.3976H132.016V29.4769C132.016 28.2886 131.969 27.4953 131.874 27.0971C131.71 26.4145 131.41 25.9025 130.973 25.5612C130.544 25.2135 129.978 25.0397 129.276 25.0397C128.473 25.0397 127.753 25.3052 127.115 25.8361C126.482 26.3671 126.065 27.0244 125.863 27.8082C125.737 28.3139 125.673 29.2493 125.673 30.6146V34.3976H124.346V20.1Z" fill="#626262"/>
<path d="M74.9016 39.9016H76.3048V45.7515H83.3967V39.9016H84.7999V53.8484H83.3967V47.1168H76.3048V53.8484H74.9016V39.9016Z" fill="#626262"/>
<path d="M92.8589 43.2674C94.4455 43.2674 95.7602 43.8426 96.8031 44.993C97.7512 46.0422 98.2253 47.2843 98.2253 48.7191C98.2253 50.1602 97.7228 51.4212 96.7178 52.5021C95.7191 53.5766 94.4328 54.1139 92.8589 54.1139C91.2787 54.1139 89.9861 53.5766 88.9811 52.5021C87.9824 51.4212 87.4831 50.1602 87.4831 48.7191C87.4831 47.2906 87.9572 46.0517 88.9053 45.0025C89.9482 43.8457 91.2661 43.2674 92.8589 43.2674ZM92.8589 44.5663C91.7591 44.5663 90.8142 44.974 90.0241 45.7894C89.234 46.6048 88.8389 47.5908 88.8389 48.7475C88.8389 49.4934 89.0191 50.1887 89.3793 50.8334C89.7396 51.4781 90.2263 51.9775 90.8394 52.3314C91.4526 52.6791 92.1257 52.8529 92.8589 52.8529C93.5922 52.8529 94.2653 52.6791 94.8784 52.3314C95.4916 51.9775 95.9783 51.4781 96.3385 50.8334C96.6988 50.1887 96.879 49.4934 96.879 48.7475C96.879 47.5908 96.4808 46.6048 95.6843 45.7894C94.8942 44.974 93.9524 44.5663 92.8589 44.5663Z" fill="#626262"/>
<path d="M100.69 43.5329H102.008V45.3153C102.47 44.658 102.944 44.1776 103.43 43.8742C104.1 43.4697 104.805 43.2674 105.545 43.2674C106.044 43.2674 106.518 43.3654 106.967 43.5613C107.416 43.7573 107.782 44.0196 108.067 44.3483C108.351 44.6706 108.598 45.1352 108.806 45.742C109.249 44.9329 109.802 44.3198 110.466 43.9026C111.129 43.4791 111.843 43.2674 112.608 43.2674C113.323 43.2674 113.951 43.4475 114.495 43.8078C115.045 44.1681 115.453 44.6706 115.718 45.3153C115.984 45.9601 116.116 46.9271 116.116 48.2166V53.8484H114.761V48.2166C114.761 47.1104 114.682 46.3519 114.523 45.9411C114.365 45.5239 114.094 45.1889 113.708 44.9361C113.329 44.6833 112.874 44.5568 112.343 44.5568C111.698 44.5568 111.107 44.7465 110.57 45.1257C110.039 45.505 109.65 46.0106 109.404 46.6427C109.157 47.2748 109.034 48.3304 109.034 49.8094V53.8484H107.716V48.5674C107.716 47.3222 107.637 46.4784 107.479 46.0359C107.327 45.5871 107.059 45.23 106.673 44.9645C106.287 44.6927 105.829 44.5568 105.298 44.5568C104.685 44.5568 104.11 44.7433 103.573 45.1162C103.042 45.4828 102.647 45.979 102.388 46.6048C102.135 47.2305 102.008 48.1881 102.008 49.4776V53.8484H100.69V43.5329Z" fill="#626262"/>
<path d="M127.608 50.4257L128.726 51.0135C128.36 51.7341 127.936 52.3156 127.456 52.7581C126.975 53.2005 126.435 53.5387 125.835 53.7726C125.234 54.0001 124.555 54.1139 123.796 54.1139C122.115 54.1139 120.8 53.564 119.852 52.4642C118.904 51.358 118.43 50.1097 118.43 48.7191C118.43 47.4107 118.831 46.2445 119.634 45.2205C120.652 43.9184 122.014 43.2674 123.72 43.2674C125.477 43.2674 126.881 43.9342 127.93 45.2679C128.676 46.2097 129.055 47.3854 129.068 48.7949H119.795C119.82 49.9959 120.203 50.9819 120.942 51.7531C121.682 52.5179 122.595 52.9003 123.682 52.9003C124.207 52.9003 124.716 52.8086 125.209 52.6253C125.708 52.442 126.132 52.1987 126.479 51.8953C126.827 51.5919 127.203 51.102 127.608 50.4257ZM127.608 47.6477C127.431 46.9398 127.171 46.3741 126.83 45.9506C126.495 45.5271 126.049 45.1858 125.493 44.9266C124.937 44.6675 124.352 44.5379 123.739 44.5379C122.728 44.5379 121.859 44.8634 121.132 45.5144C120.601 45.9885 120.2 46.6996 119.928 47.6477H127.608Z" fill="#626262"/>
<path d="M74.9016 1H76.3048V6.8499H83.3967V1H84.7999V14.9468H83.3967V8.21519H76.3048V14.9468H74.9016V1Z" stroke="#626262"/>
<path d="M98.2537 4.6313V14.9468H96.9453V13.1739C96.3891 13.8502 95.7634 14.359 95.0681 14.7003C94.3791 15.0417 93.6238 15.2123 92.8021 15.2123C91.342 15.2123 90.0936 14.6845 89.057 13.629C88.0267 12.5671 87.5115 11.2776 87.5115 9.76063C87.5115 8.27524 88.033 7.00476 89.0759 5.94919C90.1189 4.89361 91.3736 4.36583 92.84 4.36583C93.687 4.36583 94.4518 4.54597 95.1344 4.90625C95.8234 5.26654 96.427 5.80697 96.9453 6.52754V4.6313H98.2537ZM92.9443 5.64579C92.2047 5.64579 91.5221 5.82909 90.8963 6.1957C90.2706 6.55598 89.7712 7.06481 89.3983 7.72217C89.0317 8.37953 88.8484 9.07482 88.8484 9.80804C88.8484 10.5349 89.0349 11.2302 89.4078 11.8939C89.7807 12.5576 90.2801 13.0759 90.9058 13.4488C91.5379 13.8154 92.2142 13.9987 92.9348 13.9987C93.6617 13.9987 94.3507 13.8154 95.0017 13.4488C95.6527 13.0822 96.1521 12.586 96.4997 11.9603C96.8537 11.3345 97.0307 10.6297 97.0307 9.84596C97.0307 8.65133 96.6356 7.65264 95.8455 6.8499C95.0617 6.04716 94.0947 5.64579 92.9443 5.64579Z" stroke="#626262"/>
<path d="M100.747 4.6313H102.103V6.13881C102.508 5.54466 102.934 5.1022 103.383 4.81144C103.832 4.51437 104.3 4.36583 104.786 4.36583C105.153 4.36583 105.545 4.48276 105.962 4.71663L105.27 5.83541C104.992 5.71532 104.758 5.65527 104.568 5.65527C104.126 5.65527 103.699 5.83857 103.288 6.20518C102.877 6.56546 102.565 7.12802 102.35 7.89283C102.185 8.48067 102.103 9.66898 102.103 11.4578V14.9468H100.747V4.6313Z" stroke="#626262"/>
<path d="M107.081 4.6313H108.399V6.41377C108.86 5.7564 109.334 5.27602 109.821 4.97262C110.491 4.56809 111.196 4.36583 111.935 4.36583C112.434 4.36583 112.909 4.4638 113.357 4.65974C113.806 4.85569 114.173 5.118 114.457 5.44668C114.742 5.76904 114.988 6.23362 115.197 6.84042C115.639 6.03136 116.192 5.41824 116.856 5.00107C117.52 4.57757 118.234 4.36583 118.999 4.36583C119.713 4.36583 120.342 4.54597 120.885 4.90625C121.435 5.26654 121.843 5.76904 122.108 6.41377C122.374 7.05849 122.507 8.02557 122.507 9.31501V14.9468H121.151V9.31501C121.151 8.20887 121.072 7.45038 120.914 7.03953C120.756 6.62235 120.484 6.28735 120.098 6.03452C119.719 5.78169 119.264 5.65527 118.733 5.65527C118.088 5.65527 117.497 5.84489 116.96 6.22414C116.429 6.60339 116.04 7.10905 115.794 7.74113C115.547 8.37321 115.424 9.42879 115.424 10.9079V14.9468H114.106V9.66582C114.106 8.42062 114.027 7.57679 113.869 7.13434C113.718 6.68556 113.449 6.32843 113.063 6.06296C112.678 5.79117 112.22 5.65527 111.689 5.65527C111.075 5.65527 110.5 5.84173 109.963 6.21466C109.432 6.58127 109.037 7.07745 108.778 7.70321C108.525 8.32897 108.399 9.28657 108.399 10.576V14.9468H107.081V4.6313Z" stroke="#626262"/>
<path d="M130.196 4.36583C131.782 4.36583 133.097 4.94102 134.14 6.0914C135.088 7.14066 135.562 8.3827 135.562 9.81752C135.562 11.2587 135.06 12.5197 134.055 13.6005C133.056 14.6751 131.77 15.2123 130.196 15.2123C128.616 15.2123 127.323 14.6751 126.318 13.6005C125.319 12.5197 124.82 11.2587 124.82 9.81752C124.82 8.38902 125.294 7.15014 126.242 6.10089C127.285 4.94418 128.603 4.36583 130.196 4.36583ZM130.196 5.66475C129.096 5.66475 128.151 6.07244 127.361 6.88783C126.571 7.70321 126.176 8.68925 126.176 9.84596C126.176 10.5918 126.356 11.2871 126.716 11.9318C127.077 12.5765 127.563 13.0759 128.176 13.4299C128.79 13.7775 129.463 13.9513 130.196 13.9513C130.929 13.9513 131.602 13.7775 132.215 13.4299C132.829 13.0759 133.315 12.5765 133.676 11.9318C134.036 11.2871 134.216 10.5918 134.216 9.84596C134.216 8.68925 133.818 7.70321 133.021 6.88783C132.231 6.07244 131.289 5.66475 130.196 5.66475Z" stroke="#626262"/>
<path d="M138.037 4.6313H139.364V6.48013C139.895 5.7722 140.483 5.24442 141.128 4.89677C141.772 4.54281 142.474 4.36583 143.233 4.36583C144.004 4.36583 144.686 4.56177 145.281 4.95366C145.881 5.34555 146.323 5.87334 146.608 6.53702C146.892 7.20071 147.035 8.23416 147.035 9.63737V14.9468H145.717V10.0261C145.717 8.83779 145.666 8.04453 145.565 7.64632C145.407 6.96368 145.11 6.45169 144.674 6.11037C144.238 5.76272 143.669 5.5889 142.967 5.5889C142.164 5.5889 141.444 5.85437 140.805 6.38532C140.173 6.91627 139.756 7.57363 139.554 8.35741C139.427 8.8694 139.364 9.80487 139.364 11.1638V14.9468H138.037V4.6313Z" stroke="#626262"/>
<path d="M148.779 4.6313H150.182L153.728 12.5765L157.17 4.6313H158.583L152.429 18.7204H151.026L153.017 14.1694L148.779 4.6313Z" stroke="#626262"/>
<path d="M74.9016 20.4508H76.3048V26.3007H83.3967V20.4508H84.7999V34.3976H83.3967V27.666H76.3048V34.3976H74.9016V20.4508Z" stroke="#626262"/>
<path d="M96.6609 30.9749L97.7797 31.5628C97.4131 32.2833 96.9896 32.8648 96.5092 33.3073C96.0288 33.7497 95.4884 34.0879 94.8879 34.3218C94.2874 34.5493 93.608 34.6631 92.8495 34.6631C91.1681 34.6631 89.8534 34.1132 88.9053 33.0134C87.9572 31.9072 87.4831 30.6589 87.4831 29.2683C87.4831 27.9599 87.8845 26.7937 88.6872 25.7697C89.7049 24.4677 91.067 23.8166 92.7736 23.8166C94.5308 23.8166 95.934 24.4835 96.9833 25.8171C97.7291 26.7589 98.1084 27.9346 98.121 29.3442H88.8484C88.8737 30.5451 89.2561 31.5311 89.9956 32.3023C90.7352 33.0671 91.6485 33.4495 92.7357 33.4495C93.2603 33.4495 93.7691 33.3579 94.2622 33.1746C94.7615 32.9913 95.185 32.7479 95.5326 32.4445C95.8803 32.1411 96.2564 31.6512 96.6609 30.9749ZM96.6609 28.1969C96.4839 27.489 96.2248 26.9233 95.8834 26.4998C95.5484 26.0763 95.1028 25.735 94.5466 25.4758C93.9904 25.2167 93.4057 25.0871 92.7926 25.0871C91.7812 25.0871 90.9121 25.4126 90.1852 26.0637C89.6543 26.5377 89.2529 27.2488 88.9811 28.1969H96.6609Z" stroke="#626262"/>
<path d="M110.883 24.0821V34.3976H109.574V32.6246C109.018 33.301 108.392 33.8098 107.697 34.1511C107.008 34.4924 106.253 34.6631 105.431 34.6631C103.971 34.6631 102.723 34.1353 101.686 33.0797C100.656 32.0178 100.141 30.7284 100.141 29.2114C100.141 27.726 100.662 26.4555 101.705 25.4C102.748 24.3444 104.003 23.8166 105.469 23.8166C106.316 23.8166 107.081 23.9968 107.763 24.357C108.452 24.7173 109.056 25.2578 109.574 25.9783V24.0821H110.883ZM105.573 25.0966C104.834 25.0966 104.151 25.2799 103.525 25.6465C102.9 26.0068 102.4 26.5156 102.027 27.173C101.661 27.8303 101.477 28.5256 101.477 29.2588C101.477 29.9857 101.664 30.681 102.037 31.3447C102.41 32.0084 102.909 32.5267 103.535 32.8996C104.167 33.2662 104.843 33.4495 105.564 33.4495C106.291 33.4495 106.98 33.2662 107.631 32.8996C108.282 32.533 108.781 32.0368 109.129 31.4111C109.483 30.7853 109.66 30.0805 109.66 29.2967C109.66 28.1021 109.265 27.1034 108.474 26.3007C107.691 25.4979 106.724 25.0966 105.573 25.0966Z" stroke="#626262"/>
<path d="M113.68 20.1H115.007V34.3976H113.68V20.1Z" stroke="#626262"/>
<path d="M118.923 20.2517H120.26V24.0821H122.364V25.2198H120.26V34.3976H118.923V25.2198H117.112V24.0821H118.923V20.2517Z" stroke="#626262"/>
<path d="M124.346 20.1H125.673V25.9309C126.211 25.223 126.802 24.6952 127.446 24.3476C128.091 23.9936 128.79 23.8166 129.542 23.8166C130.313 23.8166 130.995 24.0126 131.59 24.4044C132.19 24.7963 132.633 25.3241 132.917 25.9878C133.201 26.6452 133.344 27.6786 133.344 29.0882V34.3976H132.016V29.4769C132.016 28.2886 131.969 27.4953 131.874 27.0971C131.71 26.4145 131.41 25.9025 130.973 25.5612C130.544 25.2135 129.978 25.0397 129.276 25.0397C128.473 25.0397 127.753 25.3052 127.115 25.8361C126.482 26.3671 126.065 27.0244 125.863 27.8082C125.737 28.3139 125.673 29.2493 125.673 30.6146V34.3976H124.346V20.1Z" stroke="#626262"/>
<path d="M74.9016 39.9016H76.3048V45.7515H83.3967V39.9016H84.7999V53.8484H83.3967V47.1168H76.3048V53.8484H74.9016V39.9016Z" stroke="#626262"/>
<path d="M92.8589 43.2674C94.4455 43.2674 95.7602 43.8426 96.8031 44.993C97.7512 46.0422 98.2253 47.2843 98.2253 48.7191C98.2253 50.1602 97.7228 51.4212 96.7178 52.5021C95.7191 53.5766 94.4328 54.1139 92.8589 54.1139C91.2787 54.1139 89.9861 53.5766 88.9811 52.5021C87.9824 51.4212 87.4831 50.1602 87.4831 48.7191C87.4831 47.2906 87.9572 46.0517 88.9053 45.0025C89.9482 43.8457 91.2661 43.2674 92.8589 43.2674ZM92.8589 44.5663C91.7591 44.5663 90.8142 44.974 90.0241 45.7894C89.234 46.6048 88.8389 47.5908 88.8389 48.7475C88.8389 49.4934 89.0191 50.1887 89.3793 50.8334C89.7396 51.4781 90.2263 51.9775 90.8394 52.3314C91.4526 52.6791 92.1257 52.8529 92.8589 52.8529C93.5922 52.8529 94.2653 52.6791 94.8784 52.3314C95.4916 51.9775 95.9783 51.4781 96.3385 50.8334C96.6988 50.1887 96.879 49.4934 96.879 48.7475C96.879 47.5908 96.4808 46.6048 95.6843 45.7894C94.8942 44.974 93.9524 44.5663 92.8589 44.5663Z" stroke="#626262"/>
<path d="M100.69 43.5329H102.008V45.3153C102.47 44.658 102.944 44.1776 103.43 43.8742C104.1 43.4697 104.805 43.2674 105.545 43.2674C106.044 43.2674 106.518 43.3654 106.967 43.5613C107.416 43.7573 107.782 44.0196 108.067 44.3483C108.351 44.6706 108.598 45.1352 108.806 45.742C109.249 44.9329 109.802 44.3198 110.466 43.9026C111.129 43.4791 111.843 43.2674 112.608 43.2674C113.323 43.2674 113.951 43.4475 114.495 43.8078C115.045 44.1681 115.453 44.6706 115.718 45.3153C115.984 45.9601 116.116 46.9271 116.116 48.2166V53.8484H114.761V48.2166C114.761 47.1104 114.682 46.3519 114.523 45.9411C114.365 45.5239 114.094 45.1889 113.708 44.9361C113.329 44.6833 112.874 44.5568 112.343 44.5568C111.698 44.5568 111.107 44.7465 110.57 45.1257C110.039 45.505 109.65 46.0106 109.404 46.6427C109.157 47.2748 109.034 48.3304 109.034 49.8094V53.8484H107.716V48.5674C107.716 47.3222 107.637 46.4784 107.479 46.0359C107.327 45.5871 107.059 45.23 106.673 44.9645C106.287 44.6927 105.829 44.5568 105.298 44.5568C104.685 44.5568 104.11 44.7433 103.573 45.1162C103.042 45.4828 102.647 45.979 102.388 46.6048C102.135 47.2305 102.008 48.1881 102.008 49.4776V53.8484H100.69V43.5329Z" stroke="#626262"/>
<path d="M127.608 50.4257L128.726 51.0135C128.36 51.7341 127.936 52.3156 127.456 52.7581C126.975 53.2005 126.435 53.5387 125.835 53.7726C125.234 54.0001 124.555 54.1139 123.796 54.1139C122.115 54.1139 120.8 53.564 119.852 52.4642C118.904 51.358 118.43 50.1097 118.43 48.7191C118.43 47.4107 118.831 46.2445 119.634 45.2205C120.652 43.9184 122.014 43.2674 123.72 43.2674C125.477 43.2674 126.881 43.9342 127.93 45.2679C128.676 46.2097 129.055 47.3854 129.068 48.7949H119.795C119.82 49.9959 120.203 50.9819 120.942 51.7531C121.682 52.5179 122.595 52.9003 123.682 52.9003C124.207 52.9003 124.716 52.8086 125.209 52.6253C125.708 52.442 126.132 52.1987 126.479 51.8953C126.827 51.5919 127.203 51.102 127.608 50.4257ZM127.608 47.6477C127.431 46.9398 127.171 46.3741 126.83 45.9506C126.495 45.5271 126.049 45.1858 125.493 44.9266C124.937 44.6675 124.352 44.5379 123.739 44.5379C122.728 44.5379 121.859 44.8634 121.132 45.5144C120.601 45.9885 120.2 46.6996 119.928 47.6477H127.608Z" stroke="#626262"/>
</svg>
