<svg width="67" height="55" viewBox="0 0 67 55" fill="none" xmlns="http://www.w3.org/2000/svg">
<path fill-rule="evenodd" clip-rule="evenodd" d="M66.9016 17.5137C66.9016 28.6444 66.9016 39.775 66.9016 50.9059C66.9016 53.007 65.1879 54.7206 63.0868 54.7204C59.7576 54.7204 56.4282 54.7204 53.0989 54.7204C57.6994 42.3181 62.3006 29.9155 66.9016 17.5137ZM42.2932 54.7204C35.867 54.7204 29.4407 54.7204 23.0145 54.7204C24.8442 47.9807 26.6745 41.2406 28.5034 34.5006C35.1319 35.1798 41.7605 35.859 48.389 36.5376C46.3572 42.5983 44.3259 48.6601 42.2932 54.7204ZM12.6208 53.8895C12.2999 48.1437 8.28551 34.7883 0 31.378C1.61633 31.5421 15.8542 33.2049 17.4723 33.3708C15.8573 40.2107 14.2382 47.0501 12.6208 53.8895Z" fill="#00AFEF"/>
<path fill-rule="evenodd" clip-rule="evenodd" d="M16.4352 0.439848C19.3768 0.439848 22.3183 0.439667 25.2599 0.439667C23.8122 6.56603 22.3635 12.6929 20.9149 18.8191C18.1501 18.5355 15.3854 18.2522 12.6208 17.969C12.6208 13.3975 12.6208 8.82574 12.6208 4.25421C12.6208 2.15313 14.3341 0.440029 16.4352 0.439848ZM37.75 0.439667C45.33 0.439667 52.9101 0.439667 60.4902 0.439667C58.0668 7.66884 55.6439 14.8993 53.2201 22.1283C46.2937 21.419 39.367 20.7093 32.4406 19.9999C34.2094 13.4796 35.9802 6.95944 37.75 0.439667Z" fill="#626262"/>
</svg>
