<svg width="159" height="55" viewBox="0 0 159 55" fill="none" xmlns="http://www.w3.org/2000/svg">
<path fill-rule="evenodd" clip-rule="evenodd" d="M66.9016 17.5137C66.9016 28.6444 66.9016 39.7749 66.9016 50.9059C66.9016 53.0069 65.1879 54.7206 63.0868 54.7204C59.7576 54.7204 56.4282 54.7204 53.0989 54.7204C57.6994 42.3181 62.3006 29.9154 66.9016 17.5137ZM42.2932 54.7204C35.867 54.7204 29.4407 54.7204 23.0145 54.7204C24.8442 47.9807 26.6745 41.2406 28.5034 34.5005C35.1319 35.1797 41.7605 35.8589 48.389 36.5376C46.3572 42.5983 44.3259 48.6601 42.2932 54.7204ZM12.6208 53.8894C12.2999 48.1437 8.28551 34.7883 0 31.378C1.61633 31.5421 15.8542 33.2049 17.4723 33.3708C15.8573 40.2107 14.2382 47.0501 12.6208 53.8894Z" fill="white"/>
<path fill-rule="evenodd" clip-rule="evenodd" d="M16.4352 0.439817C19.3768 0.439817 22.3183 0.439636 25.2599 0.439636C23.8122 6.56599 22.3635 12.6929 20.9149 18.8191C18.1501 18.5355 15.3854 18.2522 12.6208 17.9689C12.6208 13.3974 12.6208 8.82571 12.6208 4.25418C12.6208 2.1531 14.3341 0.439998 16.4352 0.439817ZM37.75 0.439636C45.33 0.439636 52.9101 0.439636 60.4902 0.439636C58.0668 7.66881 55.6439 14.8992 53.2201 22.1282C46.2938 21.419 39.367 20.7093 32.4406 19.9998C34.2094 13.4795 35.9802 6.95941 37.75 0.439636Z" fill="white"/>
<path d="M74.9016 0H76.3048V5.8499H83.3967V0H84.7999V13.9468H83.3967V7.21519H76.3048V13.9468H74.9016V0Z" fill="white"/>
<path d="M98.2537 3.6313V13.9468H96.9453V12.1739C96.3891 12.8502 95.7634 13.359 95.0681 13.7003C94.3791 14.0417 93.6238 14.2123 92.8021 14.2123C91.342 14.2123 90.0936 13.6845 89.057 12.629C88.0267 11.5671 87.5115 10.2776 87.5115 8.76063C87.5115 7.27524 88.033 6.00476 89.0759 4.94919C90.1189 3.89361 91.3736 3.36583 92.84 3.36583C93.687 3.36583 94.4518 3.54597 95.1344 3.90625C95.8234 4.26654 96.427 4.80697 96.9453 5.52754V3.6313H98.2537ZM92.9443 4.64579C92.2047 4.64579 91.5221 4.82909 90.8963 5.1957C90.2706 5.55598 89.7712 6.06481 89.3983 6.72217C89.0317 7.37953 88.8484 8.07482 88.8484 8.80804C88.8484 9.53493 89.0349 10.2302 89.4078 10.8939C89.7807 11.5576 90.2801 12.0759 90.9058 12.4488C91.5379 12.8154 92.2142 12.9987 92.9348 12.9987C93.6617 12.9987 94.3507 12.8154 95.0017 12.4488C95.6527 12.0822 96.1521 11.586 96.4997 10.9603C96.8537 10.3345 97.0307 9.62974 97.0307 8.84596C97.0307 7.65133 96.6356 6.65264 95.8455 5.8499C95.0617 5.04716 94.0947 4.64579 92.9443 4.64579Z" fill="white"/>
<path d="M100.747 3.6313H102.103V5.13881C102.508 4.54466 102.934 4.1022 103.383 3.81144C103.832 3.51437 104.3 3.36583 104.786 3.36583C105.153 3.36583 105.545 3.48276 105.962 3.71663L105.27 4.83541C104.992 4.71532 104.758 4.65527 104.568 4.65527C104.126 4.65527 103.699 4.83857 103.288 5.20518C102.877 5.56546 102.565 6.12802 102.35 6.89283C102.185 7.48067 102.103 8.66898 102.103 10.4578V13.9468H100.747V3.6313Z" fill="white"/>
<path d="M107.081 3.6313H108.399V5.41377C108.86 4.7564 109.334 4.27602 109.821 3.97262C110.491 3.56809 111.196 3.36583 111.935 3.36583C112.434 3.36583 112.909 3.4638 113.357 3.65974C113.806 3.85569 114.173 4.118 114.457 4.44668C114.742 4.76904 114.988 5.23362 115.197 5.84042C115.639 5.03136 116.192 4.41824 116.856 4.00107C117.52 3.57757 118.234 3.36583 118.999 3.36583C119.713 3.36583 120.342 3.54597 120.885 3.90625C121.435 4.26654 121.843 4.76904 122.108 5.41377C122.374 6.05849 122.507 7.02557 122.507 8.31501V13.9468H121.151V8.31501C121.151 7.20887 121.072 6.45038 120.914 6.03953C120.756 5.62235 120.484 5.28735 120.098 5.03452C119.719 4.78169 119.264 4.65527 118.733 4.65527C118.088 4.65527 117.497 4.84489 116.96 5.22414C116.429 5.60339 116.04 6.10905 115.794 6.74113C115.547 7.37321 115.424 8.42879 115.424 9.90786V13.9468H114.106V8.66582C114.106 7.42062 114.027 6.57679 113.869 6.13434C113.718 5.68556 113.449 5.32843 113.063 5.06296C112.678 4.79117 112.22 4.65527 111.689 4.65527C111.075 4.65527 110.5 4.84173 109.963 5.21466C109.432 5.58127 109.037 6.07745 108.778 6.70321C108.525 7.32897 108.399 8.28657 108.399 9.57601V13.9468H107.081V3.6313Z" fill="white"/>
<path d="M130.196 3.36583C131.782 3.36583 133.097 3.94102 134.14 5.0914C135.088 6.14066 135.562 7.3827 135.562 8.81752C135.562 10.2587 135.06 11.5197 134.055 12.6005C133.056 13.6751 131.77 14.2123 130.196 14.2123C128.616 14.2123 127.323 13.6751 126.318 12.6005C125.319 11.5197 124.82 10.2587 124.82 8.81752C124.82 7.38902 125.294 6.15014 126.242 5.10089C127.285 3.94418 128.603 3.36583 130.196 3.36583ZM130.196 4.66475C129.096 4.66475 128.151 5.07244 127.361 5.88783C126.571 6.70321 126.176 7.68925 126.176 8.84596C126.176 9.59181 126.356 10.2871 126.716 10.9318C127.077 11.5765 127.563 12.0759 128.176 12.4299C128.79 12.7775 129.463 12.9513 130.196 12.9513C130.929 12.9513 131.602 12.7775 132.215 12.4299C132.829 12.0759 133.315 11.5765 133.676 10.9318C134.036 10.2871 134.216 9.59181 134.216 8.84596C134.216 7.68925 133.818 6.70321 133.021 5.88783C132.231 5.07244 131.289 4.66475 130.196 4.66475Z" fill="white"/>
<path d="M138.037 3.6313H139.364V5.48013C139.895 4.7722 140.483 4.24442 141.128 3.89677C141.772 3.54281 142.474 3.36583 143.233 3.36583C144.004 3.36583 144.686 3.56177 145.281 3.95366C145.881 4.34555 146.323 4.87334 146.608 5.53702C146.892 6.20071 147.035 7.23416 147.035 8.63737V13.9468H145.717V9.0261C145.717 7.83779 145.666 7.04453 145.565 6.64632C145.407 5.96368 145.11 5.45169 144.674 5.11037C144.238 4.76272 143.669 4.5889 142.967 4.5889C142.164 4.5889 141.444 4.85437 140.805 5.38532C140.173 5.91627 139.756 6.57363 139.554 7.35741C139.427 7.8694 139.364 8.80487 139.364 10.1638V13.9468H138.037V3.6313Z" fill="white"/>
<path d="M148.779 3.6313H150.182L153.728 11.5765L157.17 3.6313H158.583L152.429 17.7204H151.026L153.017 13.1694L148.779 3.6313Z" fill="white"/>
<path d="M74.9016 19.4508H76.3048V25.3007H83.3967V19.4508H84.7999V33.3976H83.3967V26.666H76.3048V33.3976H74.9016V19.4508Z" fill="white"/>
<path d="M96.6609 29.9749L97.7797 30.5628C97.4131 31.2833 96.9896 31.8648 96.5092 32.3073C96.0288 32.7497 95.4884 33.0879 94.8879 33.3218C94.2874 33.5493 93.608 33.6631 92.8495 33.6631C91.1681 33.6631 89.8534 33.1132 88.9053 32.0134C87.9572 30.9072 87.4831 29.6589 87.4831 28.2683C87.4831 26.9599 87.8845 25.7937 88.6872 24.7697C89.7049 23.4677 91.067 22.8166 92.7736 22.8166C94.5308 22.8166 95.934 23.4835 96.9833 24.8171C97.7291 25.7589 98.1084 26.9346 98.121 28.3442H88.8484C88.8737 29.5451 89.2561 30.5311 89.9956 31.3023C90.7352 32.0671 91.6485 32.4495 92.7357 32.4495C93.2603 32.4495 93.7691 32.3579 94.2622 32.1746C94.7615 31.9913 95.185 31.7479 95.5326 31.4445C95.8803 31.1411 96.2564 30.6512 96.6609 29.9749ZM96.6609 27.1969C96.4839 26.489 96.2248 25.9233 95.8834 25.4998C95.5484 25.0763 95.1028 24.735 94.5466 24.4758C93.9904 24.2167 93.4057 24.0871 92.7926 24.0871C91.7812 24.0871 90.9121 24.4126 90.1852 25.0637C89.6543 25.5377 89.2529 26.2488 88.9811 27.1969H96.6609Z" fill="white"/>
<path d="M110.883 23.0821V33.3976H109.574V31.6246C109.018 32.301 108.392 32.8098 107.697 33.1511C107.008 33.4924 106.253 33.6631 105.431 33.6631C103.971 33.6631 102.723 33.1353 101.686 32.0797C100.656 31.0178 100.141 29.7284 100.141 28.2114C100.141 26.726 100.662 25.4555 101.705 24.4C102.748 23.3444 104.003 22.8166 105.469 22.8166C106.316 22.8166 107.081 22.9968 107.763 23.357C108.452 23.7173 109.056 24.2578 109.574 24.9783V23.0821H110.883ZM105.573 24.0966C104.834 24.0966 104.151 24.2799 103.525 24.6465C102.9 25.0068 102.4 25.5156 102.027 26.173C101.661 26.8303 101.477 27.5256 101.477 28.2588C101.477 28.9857 101.664 29.681 102.037 30.3447C102.41 31.0084 102.909 31.5267 103.535 31.8996C104.167 32.2662 104.843 32.4495 105.564 32.4495C106.291 32.4495 106.98 32.2662 107.631 31.8996C108.282 31.533 108.781 31.0368 109.129 30.4111C109.483 29.7853 109.66 29.0805 109.66 28.2967C109.66 27.1021 109.265 26.1034 108.474 25.3007C107.691 24.4979 106.724 24.0966 105.573 24.0966Z" fill="white"/>
<path d="M113.68 19.1H115.007V33.3976H113.68V19.1Z" fill="white"/>
<path d="M118.923 19.2517H120.26V23.0821H122.364V24.2198H120.26V33.3976H118.923V24.2198H117.112V23.0821H118.923V19.2517Z" fill="white"/>
<path d="M124.346 19.1H125.673V24.9309C126.211 24.223 126.802 23.6952 127.446 23.3476C128.091 22.9936 128.79 22.8166 129.542 22.8166C130.313 22.8166 130.995 23.0126 131.59 23.4044C132.19 23.7963 132.633 24.3241 132.917 24.9878C133.201 25.6452 133.344 26.6786 133.344 28.0882V33.3976H132.016V28.4769C132.016 27.2886 131.969 26.4953 131.874 26.0971C131.71 25.4145 131.41 24.9025 130.973 24.5612C130.544 24.2135 129.978 24.0397 129.276 24.0397C128.473 24.0397 127.753 24.3052 127.115 24.8361C126.482 25.3671 126.065 26.0244 125.863 26.8082C125.737 27.3139 125.673 28.2493 125.673 29.6146V33.3976H124.346V19.1Z" fill="white"/>
<path d="M74.9016 38.9016H76.3048V44.7515H83.3967V38.9016H84.7999V52.8484H83.3967V46.1168H76.3048V52.8484H74.9016V38.9016Z" fill="white"/>
<path d="M92.8589 42.2674C94.4455 42.2674 95.7602 42.8426 96.8031 43.993C97.7512 45.0422 98.2253 46.2843 98.2253 47.7191C98.2253 49.1602 97.7228 50.4212 96.7178 51.5021C95.7191 52.5766 94.4328 53.1139 92.8589 53.1139C91.2787 53.1139 89.9861 52.5766 88.9811 51.5021C87.9824 50.4212 87.4831 49.1602 87.4831 47.7191C87.4831 46.2906 87.9572 45.0517 88.9053 44.0025C89.9482 42.8457 91.2661 42.2674 92.8589 42.2674ZM92.8589 43.5663C91.7591 43.5663 90.8142 43.974 90.0241 44.7894C89.234 45.6048 88.8389 46.5908 88.8389 47.7475C88.8389 48.4934 89.0191 49.1887 89.3793 49.8334C89.7396 50.4781 90.2263 50.9775 90.8394 51.3314C91.4526 51.6791 92.1257 51.8529 92.8589 51.8529C93.5922 51.8529 94.2653 51.6791 94.8784 51.3314C95.4916 50.9775 95.9783 50.4781 96.3385 49.8334C96.6988 49.1887 96.879 48.4934 96.879 47.7475C96.879 46.5908 96.4808 45.6048 95.6843 44.7894C94.8942 43.974 93.9524 43.5663 92.8589 43.5663Z" fill="white"/>
<path d="M100.69 42.5329H102.008V44.3153C102.47 43.658 102.944 43.1776 103.43 42.8742C104.1 42.4697 104.805 42.2674 105.545 42.2674C106.044 42.2674 106.518 42.3654 106.967 42.5613C107.416 42.7573 107.782 43.0196 108.067 43.3483C108.351 43.6706 108.598 44.1352 108.806 44.742C109.249 43.9329 109.802 43.3198 110.466 42.9026C111.129 42.4791 111.843 42.2674 112.608 42.2674C113.323 42.2674 113.951 42.4475 114.495 42.8078C115.045 43.1681 115.453 43.6706 115.718 44.3153C115.984 44.9601 116.116 45.9271 116.116 47.2166V52.8484H114.761V47.2166C114.761 46.1104 114.682 45.3519 114.523 44.9411C114.365 44.5239 114.094 44.1889 113.708 43.9361C113.329 43.6833 112.874 43.5568 112.343 43.5568C111.698 43.5568 111.107 43.7465 110.57 44.1257C110.039 44.505 109.65 45.0106 109.404 45.6427C109.157 46.2748 109.034 47.3304 109.034 48.8094V52.8484H107.716V47.5674C107.716 46.3222 107.637 45.4784 107.479 45.0359C107.327 44.5871 107.059 44.23 106.673 43.9645C106.287 43.6927 105.829 43.5568 105.298 43.5568C104.685 43.5568 104.11 43.7433 103.573 44.1162C103.042 44.4828 102.647 44.979 102.388 45.6048C102.135 46.2305 102.008 47.1881 102.008 48.4776V52.8484H100.69V42.5329Z" fill="white"/>
<path d="M127.608 49.4257L128.726 50.0135C128.36 50.7341 127.936 51.3156 127.456 51.7581C126.975 52.2005 126.435 52.5387 125.835 52.7726C125.234 53.0001 124.555 53.1139 123.796 53.1139C122.115 53.1139 120.8 52.564 119.852 51.4642C118.904 50.358 118.43 49.1097 118.43 47.7191C118.43 46.4107 118.831 45.2445 119.634 44.2205C120.652 42.9184 122.014 42.2674 123.72 42.2674C125.477 42.2674 126.881 42.9342 127.93 44.2679C128.676 45.2097 129.055 46.3854 129.068 47.7949H119.795C119.82 48.9959 120.203 49.9819 120.942 50.7531C121.682 51.5179 122.595 51.9003 123.682 51.9003C124.207 51.9003 124.716 51.8086 125.209 51.6253C125.708 51.442 126.132 51.1987 126.479 50.8953C126.827 50.5919 127.203 50.102 127.608 49.4257ZM127.608 46.6477C127.431 45.9398 127.171 45.3741 126.83 44.9506C126.495 44.5271 126.049 44.1858 125.493 43.9266C124.937 43.6675 124.352 43.5379 123.739 43.5379C122.728 43.5379 121.859 43.8634 121.132 44.5144C120.601 44.9885 120.2 45.6996 119.928 46.6477H127.608Z" fill="white"/>
</svg>
