<svg width="333" height="115" viewBox="0 0 333 115" fill="none" xmlns="http://www.w3.org/2000/svg">
<path fill-rule="evenodd" clip-rule="evenodd" d="M140.55 36.8752C140.55 60.1332 140.55 83.3909 140.55 106.649C140.55 111.04 136.969 114.62 132.579 114.62C125.622 114.62 118.666 114.62 111.709 114.62C121.322 88.7049 130.936 62.7891 140.55 36.8752ZM89.13 114.62C75.7021 114.62 62.2742 114.62 48.8463 114.62C52.6697 100.537 56.4942 86.4535 60.3156 72.3698C74.1661 73.7891 88.0169 75.2083 101.867 76.6263C97.6218 89.2904 93.3774 101.957 89.13 114.62ZM27.1284 112.884C26.4579 100.878 18.0696 72.9712 0.756714 65.8452C4.1341 66.188 33.8846 69.6626 37.2658 70.0092C33.8911 84.3014 30.508 98.5926 27.1284 112.884Z" fill="#00AFEF"/>
<path fill-rule="evenodd" clip-rule="evenodd" d="M35.0987 1.19868C41.2453 1.19868 47.3916 1.1983 53.5382 1.1983C50.5131 13.9996 47.4861 26.802 44.4591 39.6028C38.6821 39.0102 32.905 38.4183 27.1284 37.8265C27.1284 28.2741 27.1284 18.7213 27.1284 9.16894C27.1284 4.77865 30.7084 1.19906 35.0987 1.19868ZM79.6366 1.1983C95.4755 1.1983 111.314 1.1983 127.153 1.1983C122.089 16.3039 117.027 31.4122 111.962 46.5175C97.4892 45.0355 83.0155 43.5524 68.5426 42.0701C72.2386 28.4457 75.9387 14.8216 79.6366 1.1983Z" fill="#626262"/>
<path d="M157.694 0.279541H160.626V12.5031H175.445V0.279541H178.377V29.422H175.445V15.356H160.626V29.422H157.694V0.279541Z" fill="#BDBFC1"/>
<path d="M206.49 7.86728V29.422H203.756V25.7173C202.593 27.1305 201.286 28.1937 199.833 28.9069C198.393 29.6201 196.815 29.9767 195.098 29.9767C192.047 29.9767 189.439 28.8739 187.273 26.6682C185.12 24.4494 184.043 21.755 184.043 18.5852C184.043 15.4814 185.133 12.8267 187.312 10.6211C189.492 8.4154 192.113 7.31256 195.177 7.31256C196.947 7.31256 198.545 7.68898 199.972 8.44181C201.411 9.19464 202.673 10.3239 203.756 11.8295V7.86728H206.49ZM195.395 9.98709C193.85 9.98709 192.424 10.3701 191.116 11.1362C189.809 11.889 188.765 12.9522 187.986 14.3258C187.22 15.6994 186.837 17.1522 186.837 18.6843C186.837 20.2031 187.226 21.656 188.006 23.0428C188.785 24.4296 189.828 25.5126 191.136 26.2918C192.457 27.0579 193.87 27.4409 195.376 27.4409C196.894 27.4409 198.334 27.0579 199.694 26.2918C201.055 25.5258 202.098 24.489 202.825 23.1814C203.564 21.8739 203.934 20.4013 203.934 18.7635C203.934 16.2673 203.109 14.1805 201.458 12.5031C199.82 10.8258 197.799 9.98709 195.395 9.98709Z" fill="#BDBFC1"/>
<path d="M211.7 7.86728H214.533V11.0173C215.378 9.77577 216.27 8.85124 217.208 8.2437C218.145 7.62294 219.123 7.31256 220.14 7.31256C220.906 7.31256 221.725 7.5569 222.596 8.04558L221.15 10.3833C220.569 10.1324 220.08 10.0069 219.684 10.0069C218.76 10.0069 217.868 10.3899 217.01 11.156C216.151 11.9088 215.497 13.0843 215.048 14.6824C214.705 15.9107 214.533 18.3937 214.533 22.1314V29.422H211.7V7.86728Z" fill="#BDBFC1"/>
<path d="M224.934 7.86728H227.688V11.5918C228.652 10.2182 229.643 9.21445 230.66 8.58049C232.06 7.73521 233.532 7.31256 235.077 7.31256C236.121 7.31256 237.111 7.51728 238.049 7.92672C238.987 8.33615 239.753 8.88426 240.347 9.57106C240.942 10.2446 241.457 11.2154 241.893 12.4833C242.817 10.7928 243.973 9.51162 245.36 8.63992C246.746 7.75502 248.239 7.31256 249.837 7.31256C251.329 7.31256 252.644 7.68898 253.779 8.44181C254.928 9.19464 255.78 10.2446 256.335 11.5918C256.89 12.939 257.167 14.9597 257.167 17.6541V29.422H254.334V17.6541C254.334 15.3428 254.169 13.7579 253.839 12.8994C253.509 12.0277 252.941 11.3277 252.135 10.7994C251.343 10.2711 250.392 10.0069 249.282 10.0069C247.935 10.0069 246.7 10.4031 245.577 11.1956C244.468 11.988 243.656 13.0446 243.141 14.3654C242.626 15.6862 242.368 17.8918 242.368 20.9824V29.422H239.614V18.3871C239.614 15.7852 239.449 14.022 239.119 13.0975C238.802 12.1597 238.241 11.4135 237.435 10.8588C236.629 10.2909 235.672 10.0069 234.562 10.0069C233.281 10.0069 232.079 10.3965 230.957 11.1758C229.847 11.9418 229.022 12.9786 228.48 14.2862C227.952 15.5937 227.688 17.5946 227.688 20.289V29.422H224.934V7.86728Z" fill="#BDBFC1"/>
<path d="M273.234 7.31256C276.549 7.31256 279.296 8.51445 281.476 10.9182C283.457 13.1107 284.447 15.706 284.447 18.7041C284.447 21.7154 283.397 24.3503 281.297 26.6088C279.211 28.8541 276.523 29.9767 273.234 29.9767C269.932 29.9767 267.231 28.8541 265.131 26.6088C263.044 24.3503 262.001 21.7154 262.001 18.7041C262.001 15.7192 262.992 13.1305 264.973 10.938C267.152 8.52106 269.906 7.31256 273.234 7.31256ZM273.234 10.0267C270.936 10.0267 268.961 10.8786 267.311 12.5824C265.66 14.2862 264.834 16.3465 264.834 18.7635C264.834 20.322 265.21 21.7748 265.963 23.122C266.716 24.4692 267.733 25.5126 269.014 26.2522C270.295 26.9786 271.702 27.3418 273.234 27.3418C274.766 27.3418 276.173 26.9786 277.454 26.2522C278.735 25.5126 279.752 24.4692 280.505 23.122C281.258 21.7748 281.634 20.322 281.634 18.7635C281.634 16.3465 280.802 14.2862 279.138 12.5824C277.487 10.8786 275.519 10.0267 273.234 10.0267Z" fill="#BDBFC1"/>
<path d="M289.618 7.86728H292.392V11.7305C293.501 10.2512 294.729 9.14841 296.077 8.422C297.424 7.68238 298.89 7.31256 300.475 7.31256C302.086 7.31256 303.512 7.722 304.754 8.54087C306.009 9.35974 306.933 10.4626 307.527 11.8494C308.122 13.2362 308.419 15.3956 308.419 18.3277V29.422H305.665V19.1399C305.665 16.6569 305.56 14.9994 305.348 14.1673C305.018 12.7409 304.397 11.6711 303.486 10.9578C302.575 10.2314 301.386 9.86823 299.92 9.86823C298.243 9.86823 296.737 10.4229 295.403 11.5324C294.082 12.6418 293.21 14.0154 292.788 15.6531C292.524 16.7229 292.392 18.6777 292.392 21.5173V29.422H289.618V7.86728Z" fill="#BDBFC1"/>
<path d="M312.064 7.86728H314.996L322.406 24.4692L329.597 7.86728H332.549L319.692 37.3069H316.76L320.92 27.7975L312.064 7.86728Z" fill="#BDBFC1"/>
<path d="M157.694 40.9227H160.626V53.1463H175.445V40.9227H178.377V70.0652H175.445V55.9991H160.626V70.0652H157.694V40.9227Z" fill="#BDBFC1"/>
<path d="M203.161 62.9133L205.499 64.1416C204.733 65.6472 203.848 66.8623 202.844 67.7869C201.841 68.7114 200.711 69.418 199.457 69.9067C198.202 70.3821 196.782 70.6199 195.197 70.6199C191.684 70.6199 188.937 69.4708 186.956 67.1727C184.975 64.8614 183.984 62.2529 183.984 59.3472C183.984 56.6133 184.823 54.1765 186.5 52.0369C188.626 49.3161 191.473 47.9557 195.039 47.9557C198.71 47.9557 201.643 49.3491 203.835 52.1359C205.393 54.1038 206.186 56.5604 206.212 59.5057H186.837C186.89 62.0152 187.689 64.0755 189.234 65.6869C190.779 67.285 192.688 68.084 194.96 68.084C196.056 68.084 197.119 67.8925 198.149 67.5095C199.193 67.1265 200.077 66.618 200.804 65.984C201.53 65.3501 202.316 64.3265 203.161 62.9133ZM203.161 57.1086C202.792 55.6293 202.25 54.4472 201.537 53.5623C200.837 52.6774 199.906 51.9642 198.743 51.4227C197.581 50.8812 196.36 50.6104 195.078 50.6104C192.965 50.6104 191.149 51.2906 189.63 52.651C188.521 53.6416 187.682 55.1274 187.114 57.1086H203.161Z" fill="#BDBFC1"/>
<path d="M232.878 48.5104V70.0652H230.144V66.3605C228.982 67.7737 227.675 68.8369 226.222 69.5501C224.782 70.2633 223.204 70.6199 221.487 70.6199C218.436 70.6199 215.827 69.5171 213.661 67.3114C211.509 65.0925 210.432 62.3982 210.432 59.2284C210.432 56.1246 211.522 53.4699 213.701 51.2642C215.88 49.0586 218.502 47.9557 221.566 47.9557C223.336 47.9557 224.934 48.3321 226.36 49.085C227.8 49.8378 229.061 50.967 230.144 52.4727V48.5104H232.878ZM221.784 50.6303C220.239 50.6303 218.812 51.0133 217.505 51.7793C216.197 52.5321 215.154 53.5953 214.375 54.9689C213.609 56.3425 213.226 57.7954 213.226 59.3274C213.226 60.8463 213.615 62.2991 214.394 63.6859C215.174 65.0727 216.217 66.1557 217.525 66.935C218.845 67.701 220.259 68.084 221.764 68.084C223.283 68.084 224.723 67.701 226.083 66.935C227.443 66.1689 228.487 65.1321 229.213 63.8246C229.953 62.5171 230.323 61.0444 230.323 59.4067C230.323 56.9104 229.497 54.8236 227.846 53.1463C226.209 51.4689 224.188 50.6303 221.784 50.6303Z" fill="#BDBFC1"/>
<path d="M238.723 40.1897H241.496V70.0652H238.723V40.1897Z" fill="#BDBFC1"/>
<path d="M249.678 40.5067H252.472V48.5104H256.87V50.8878H252.472V70.0652H249.678V50.8878H245.894V48.5104H249.678V40.5067Z" fill="#BDBFC1"/>
<path d="M261.01 40.1897H263.784V52.3736C264.907 50.8944 266.142 49.7916 267.489 49.0652C268.836 48.3255 270.295 47.9557 271.867 47.9557C273.478 47.9557 274.905 48.3652 276.146 49.184C277.401 50.0029 278.326 51.1057 278.92 52.4925C279.514 53.8661 279.811 56.0255 279.811 58.9708V70.0652H277.038V59.7831C277.038 57.3001 276.939 55.6425 276.741 54.8104C276.397 53.384 275.77 52.3142 274.859 51.601C273.96 50.8746 272.778 50.5114 271.312 50.5114C269.635 50.5114 268.129 51.0661 266.795 52.1755C265.475 53.285 264.603 54.6586 264.18 56.2963C263.916 57.3529 263.784 59.3076 263.784 62.1604V70.0652H261.01V40.1897Z" fill="#BDBFC1"/>
<path d="M157.694 81.5659H160.626V93.7895H175.445V81.5659H178.377V110.708H175.445V96.6423H160.626V110.708H157.694V81.5659Z" fill="#BDBFC1"/>
<path d="M195.217 88.5989C198.532 88.5989 201.279 89.8008 203.459 92.2045C205.44 94.397 206.43 96.9923 206.43 99.9904C206.43 103.002 205.38 105.637 203.28 107.895C201.193 110.14 198.506 111.263 195.217 111.263C191.915 111.263 189.214 110.14 187.114 107.895C185.027 105.637 183.984 103.002 183.984 99.9904C183.984 97.0055 184.975 94.4168 186.956 92.2243C189.135 89.8074 191.889 88.5989 195.217 88.5989ZM195.217 91.313C192.919 91.313 190.944 92.1649 189.293 93.8687C187.643 95.5725 186.817 97.6328 186.817 100.05C186.817 101.608 187.193 103.061 187.946 104.408C188.699 105.755 189.716 106.799 190.997 107.539C192.278 108.265 193.685 108.628 195.217 108.628C196.749 108.628 198.156 108.265 199.437 107.539C200.718 106.799 201.735 105.755 202.488 104.408C203.241 103.061 203.617 101.608 203.617 100.05C203.617 97.6328 202.785 95.5725 201.121 93.8687C199.47 92.1649 197.502 91.313 195.217 91.313Z" fill="#BDBFC1"/>
<path d="M211.581 89.1536H214.335V92.8781C215.299 91.5045 216.29 90.5008 217.307 89.8668C218.707 89.0215 220.179 88.5989 221.725 88.5989C222.768 88.5989 223.759 88.8036 224.696 89.213C225.634 89.6225 226.4 90.1706 226.994 90.8574C227.589 91.531 228.104 92.5017 228.54 93.7696C229.464 92.0791 230.62 90.7979 232.007 89.9262C233.393 89.0413 234.886 88.5989 236.484 88.5989C237.977 88.5989 239.291 88.9753 240.427 89.7281C241.576 90.481 242.427 91.531 242.982 92.8781C243.537 94.2253 243.814 96.2461 243.814 98.9404V110.708H240.981V98.9404C240.981 96.6291 240.816 95.0442 240.486 94.1857C240.156 93.314 239.588 92.614 238.782 92.0857C237.99 91.5574 237.039 91.2932 235.929 91.2932C234.582 91.2932 233.347 91.6894 232.225 92.4819C231.115 93.2744 230.303 94.331 229.788 95.6517C229.273 96.9725 229.015 99.1781 229.015 102.269V110.708H226.261V99.6734C226.261 97.0715 226.096 95.3083 225.766 94.3838C225.449 93.4461 224.888 92.6998 224.082 92.1451C223.277 91.5772 222.319 91.2932 221.21 91.2932C219.928 91.2932 218.727 91.6828 217.604 92.4621C216.494 93.2281 215.669 94.2649 215.127 95.5725C214.599 96.88 214.335 98.881 214.335 101.575V110.708H211.581V89.1536Z" fill="#BDBFC1"/>
<path d="M267.826 103.556L270.163 104.785C269.397 106.29 268.512 107.505 267.509 108.43C266.505 109.355 265.376 110.061 264.121 110.55C262.866 111.025 261.446 111.263 259.861 111.263C256.348 111.263 253.601 110.114 251.62 107.816C249.639 105.505 248.648 102.896 248.648 99.9904C248.648 97.2564 249.487 94.8196 251.164 92.68C253.291 89.9593 256.137 88.5989 259.703 88.5989C263.375 88.5989 266.307 89.9923 268.499 92.7791C270.058 94.747 270.85 97.2036 270.877 100.149H251.501C251.554 102.658 252.353 104.719 253.898 106.33C255.444 107.928 257.352 108.727 259.624 108.727C260.72 108.727 261.783 108.536 262.813 108.153C263.857 107.77 264.742 107.261 265.468 106.627C266.194 105.993 266.98 104.97 267.826 103.556ZM267.826 97.7517C267.456 96.2725 266.914 95.0904 266.201 94.2055C265.501 93.3206 264.57 92.6074 263.408 92.0659C262.245 91.5244 261.024 91.2536 259.743 91.2536C257.629 91.2536 255.813 91.9338 254.294 93.2942C253.185 94.2847 252.346 95.7706 251.778 97.7517H267.826Z" fill="#BDBFC1"/>
</svg>
